<?xml version="1.0" encoding="iso-8859-1"?>
<!-- Generator: Adobe Illustrator 17.1.0, SVG Export Plug-In . SVG Version: 6.00 Build 0)  -->
<!DOCTYPE svg PUBLIC "-//W3C//DTD SVG 1.1//EN" "http://www.w3.org/Graphics/SVG/1.1/DTD/svg11.dtd">
<svg xmlns:xlink="http://www.w3.org/1999/xlink" version="1.1" id="Capa_1" xmlns="http://www.w3.org/2000/svg" x="0px"
     y="0px"
     viewBox="0 0 455 455" style="enable-background:new 0 0 455 455;" xml:space="preserve">
<path d="M308.134,265.401c0-5.523-4.477-10-10-10h-1.468c-3.214-8.711-7.206-16.814-11.91-24.083
	c30.346-32.722,60.701-89.227,60.701-128.172c0-27.415-13.194-53.532-37.152-73.54C285.775,10.791,256.323,0,227.5,0
	s-58.275,10.791-80.805,29.606c-23.957,20.008-37.152,46.125-37.152,73.54c0,38.947,30.355,95.452,60.701,128.173
	c-4.704,7.268-8.697,15.371-11.91,24.082h-1.468c-5.523,0-10,4.477-10,10c0,4.052,2.414,7.533,5.879,9.104
	c-2.474,11.214-3.782,23.04-3.782,35.092c0,29.289,7.685,57.258,21.263,78.25c-13.603,15.412-21.263,35.784-21.263,57.152
	c0,5.523,4.477,10,10,10h137.076c5.523,0,10-4.477,10-10c0-21.368-7.66-41.74-21.263-57.152
	c13.578-20.992,21.263-48.962,21.263-78.25c0-12.051-1.309-23.878-3.782-35.092C305.72,272.934,308.134,269.453,308.134,265.401z
	 M129.543,103.146C129.543,59.63,176.233,20,227.5,20s97.957,39.63,97.957,83.146c0,30.945-27.199,85.689-57.794,117.138H255.8
	c9.631-34.516,17.373-85.418,17.373-117.138c0-5.523-4.477-10-10-10c-5.523,0-10,4.477-10,10c0,32-8.276,84.501-18.191,117.138
	h-14.964c-9.914-32.637-18.191-85.138-18.191-117.138c0-5.523-4.477-10-10-10c-5.523,0-10,4.477-10,10
	c0,31.72,7.742,82.622,17.373,117.138h-11.863C156.742,188.836,129.543,134.092,129.543,103.146z M275.138,255.401h-95.276
	c2.433-5.438,5.238-10.513,8.402-15.117h24.39c0.025,0,0.05,0.003,0.075,0.003c0.024,0,0.048-0.003,0.072-0.003h29.399
	c0.024,0,0.048,0.003,0.072,0.003c0.025,0,0.05-0.003,0.075-0.003h24.39C269.9,244.889,272.705,249.963,275.138,255.401z
	 M285.312,435H169.688c2.012-13.741,8.135-26.414,17.542-36.09h80.54C277.177,408.586,283.3,421.259,285.312,435z M266.736,378.91
	h-78.473c-12.312-17.917-19.302-42.861-19.302-69.313c0-11.871,1.419-23.431,4.083-34.196h108.909
	c2.665,10.765,4.083,22.325,4.083,34.196C286.038,336.049,279.048,360.993,266.736,378.91z"/>
    <g>
</g>
    <g>
</g>
    <g>
</g>
    <g>
</g>
    <g>
</g>
    <g>
</g>
    <g>
</g>
    <g>
</g>
    <g>
</g>
    <g>
</g>
    <g>
</g>
    <g>
</g>
    <g>
</g>
    <g>
</g>
    <g>
</g>
</svg>
