<svg height="447pt" viewBox="-88 0 447 447.91999" width="447pt" xmlns="http://www.w3.org/2000/svg">
    <path d="m136.460938 176c-36.125-.023438-70.765626 14.375-96.230469 40h72.230469c4.417968 0 8 3.582031 8 8v192c0 4.417969-3.582032 8-8 8h-52.976563c48.183594 33.125 112.152344 31.730469 158.847656-3.460938 46.695313-35.191406 65.664063-96.296874 47.101563-151.742187-18.566406-55.449219-70.5-92.816406-128.972656-92.796875zm0 0"/>
    <path d="m26.726562 232c-39.6875 54.042969-33.84375 128.992188 13.734376 176.230469v-.230469h64v-176zm0 0"/>
    <path d="m88.460938 128v32h96v-32c0-4.417969-3.582032-8-8-8h-80c-4.417969 0-8 3.582031-8 8zm0 0"/>
    <path d="m128.460938 32h16v72h-16zm0 0"/>
    <path d="m200.460938 0h-136v16h136c4.417968 0 8-3.582031 8-8s-3.582032-8-8-8zm0 0"/>
    <path d="m216.460938 80c0 13.253906 10.746093 24 24 24 13.253906 0 24-10.746094 24-24 0-8.40625-12.664063-24.855469-24-36.695312-11.335938 11.847656-24 28.304687-24 36.695312zm0 0"/>
</svg>
