<svg height="448pt" viewBox="0 -36 448 448" width="448pt" xmlns="http://www.w3.org/2000/svg">
    <path d="m184.273438 58.175781c-.167969 1.929688-.273438 3.863281-.273438 5.824219-.019531 7.253906 1.226562 14.453125 3.679688 21.28125 10.183593 29.054688 39.664062 46.6875 70.082031 41.917969.101562 0 .207031-.054688.308593-.070313-.09375-.335937-.125-.695312-.214843-1.03125-.414063-1.601562-.734375-3.199218-1-4.800781-.128907-.734375-.28125-1.457031-.375-2.191406-.308594-2.355469-.46875-4.730469-.480469-7.105469.046875-12.363281 4.152344-24.375 11.679688-34.183594.457031-.597656 1-1.113281 1.480468-1.6875 1.078125-1.289062 2.144532-2.59375 3.328125-3.777344.640625-.628906 1.359375-1.175781 2.023438-1.773437 1.128906-1.015625 2.222656-2.066406 3.417969-2.984375.796874-.601562 1.644531-1.097656 2.460937-1.65625 1.167969-.800781 2.3125-1.640625 3.539063-2.351562.917968-.535157 1.902343-.953126 2.863281-1.433594 1.191406-.609375 2.398437-1.261719 3.589843-1.785156 1.042969-.429688 2.136719-.734376 3.203126-1.109376 1.207031-.425781 2.398437-.90625 3.644531-1.25 1.128906-.3125 2.289062-.480468 3.441406-.71875 1.152344-.238281 2.449219-.574218 3.703125-.753906 1.257812-.175781 2.402344-.183594 3.609375-.261718 1.207031-.082032 2.28125-.25 3.429687-.265626-.054687-.488281-.101562-.976562-.175781-1.453124-.183593-1.234376-.40625-2.449219-.664062-3.65625-.160157-.761719-.300781-1.53125-.484375-2.28125-.503906-1.992188-1.074219-4-1.769532-5.894532-9.003906-25.585937-33.164062-42.707031-60.285156-42.722656s-51.300781 17.082031-60.332031 42.65625c-1.800781 5.007812-2.953125 10.222656-3.429687 15.519531zm63.726562-42.175781c4.417969 0 8 3.582031 8 8s-3.582031 8-8 8c-17.671875 0-32 14.328125-32 32 0 4.417969-3.582031 8-8 8s-8-3.582031-8-8c.027344-26.496094 21.5-47.972656 48-48zm0 0"/>
    <path d="m448 104c-.035156-30.914062-25.085938-55.964844-56-56h-65.601562c.058593.273438.066406.5625.121093.839844.582031 2.984375.996094 5.996094 1.242188 9.023437 0 .152344.046875.296875.054687.449219 1.757813.511719 3.488282 1.109375 5.183594 1.792969.800781.304687 1.496094.679687 2.238281 1.023437 1 .449219 2 .894532 2.96875 1.398438.761719.402344 1.488281.847656 2.226563 1.289062.917968.535156 1.832031 1.082032 2.710937 1.671875.703125.472657 1.375.960938 2.054688 1.464844.878906.648437 1.746093 1.320313 2.59375 2.023437.613281.535157 1.21875 1.066407 1.824219 1.601563.855468.796875 1.679687 1.597656 2.488281 2.398437.527343.542969 1.054687 1.082032 1.597656 1.601563.855469.957031 1.664063 1.964844 2.457031 2.992187.390625.503907.800782.992188 1.175782 1.511719.207031.285157.40625.582031.609374.871094h34.054688c13.253906 0 24 10.746094 24 24v144.046875c0 13.253906-10.746094 24-24 24h-336c-13.253906 0-24-10.746094-24-24v-144c0-13.253906 10.746094-24 24-24h113.679688c-1.101563-5.261719-1.664063-10.621094-1.679688-16 0-2.535156.144531-5.046875.375-7.535156.082031-.800782.210938-1.601563.304688-2.398438.214843-1.691406.457031-3.371094.800781-5.042968.070312-.34375.09375-.703126.167969-1.054688h-113.648438c-30.914062.035156-55.9648438 25.085938-56 56v144.03125c.0351562 30.914062 25.085938 55.964844 56 56h2.089844c.261718-.382812.589844-.71875.863281-1.101562.65625-.890626 1.34375-1.738282 2.046875-2.585938s1.601562-1.886719 2.449219-2.785156c.847656-.894532 1.597656-1.597656 2.398437-2.351563.800782-.75 1.824219-1.597656 2.769532-2.398437.941406-.800782 1.703124-1.375 2.589843-2.015625 1.023438-.738281 2.066407-1.417969 3.128907-2.089844.902343-.558594 1.800781-1.128906 2.726562-1.597656 1.144531-.632813 2.320312-1.183594 3.503906-1.738281.921875-.421876 1.832032-.871094 2.777344-1.246094 1.289062-.511719 2.609375-.929688 3.9375-1.351563.902344-.28125 1.78125-.609375 2.703125-.847656 1.503906-.394531 3.039063-.65625 4.582031-.921875.800782-.136719 1.546875-.335938 2.335938-.433594 4.730468-.636718 9.523437-.636718 14.25 0 .800781.097656 1.519531.289063 2.28125.425782 1.597656.265624 3.117187.535156 4.636718.9375.898438.230468 1.753907.542968 2.625.796874 1.359376.425782 2.71875.859376 4 1.386719.898438.359375 1.761719.800781 2.640626 1.191407 1.238281.566406 2.472656 1.152343 3.671874 1.808593.863282.480469 1.695313 1.007813 2.535157 1.535157 1.144531.710937 2.265625 1.449218 3.351562 2.238281.800781.585937 1.601563 1.210937 2.402344 1.839843 1.039063.847657 2.046875 1.722657 3.03125 2.648438.726563.6875 1.449219 1.394531 2.144531 2.121094.925782.984375 1.816406 2 2.679688 3.046875.640625.800781 1.273437 1.601562 1.871094 2.402343.289062.390626.625.742188.90625 1.144532h242.070312c30.914062-.035156 55.964844-25.089844 56-56zm0 0"/>
    <path d="m277.414062 92c-6.667968 11.429688-7.210937 25.433594-1.4375 37.34375 5.839844 11.980469 17.214844 20.308594 30.398438 22.257812 1.863281.269532 3.742188.402344 5.625.398438 22.082031-.027344 39.972656-17.917969 40-40 .050781-7.003906-1.804688-13.894531-5.367188-19.925781-5.910156-10.375-16.183593-17.523438-27.960937-19.464844-2.199219-.40625-4.433594-.613281-6.671875-.609375-14.269531.019531-27.449219 7.640625-34.585938 20zm34.585938-4c4.417969 0 8 3.582031 8 8s-3.582031 8-8 8-8 3.582031-8 8-3.582031 8-8 8-8-3.582031-8-8c0-13.253906 10.746094-24 24-24zm0 0"/>
    <path d="m179.808594 105.703125c-1.878906-3.0625-3.554688-6.246094-5.007813-9.535156l-.089843-.167969h-118.710938c-4.417969 0-8 3.582031-8 8v144c0 4.417969 3.582031 8 8 8h336c4.417969 0 8-3.582031 8-8v-144c0-4.417969-3.582031-8-8-8h-26.328125c.0625.207031.082031.425781.136719.632812.488281 1.703126.800781 3.457032 1.152344 5.214844.152343.800782.359374 1.5625.472656 2.359375 2.304687 16.0625-2.484375 32.332031-13.125 44.578125s-26.085938 19.261719-42.308594 19.214844c-2.511719-.007812-5.023438-.1875-7.511719-.542969-.800781-.113281-1.601562-.320312-2.398437-.472656-1.601563-.304687-3.265625-.617187-4.867188-1.0625-.933594-.257813-1.839844-.601563-2.757812-.90625-1.433594-.480469-2.847656-.976563-4.234375-1.597656-.933594-.402344-1.847657-.855469-2.757813-1.304688-1.304687-.648437-2.585937-1.320312-3.832031-2.054687-.898437-.53125-1.769531-1.089844-2.632813-1.671875-1.199218-.800781-2.351562-1.601563-3.488281-2.53125-.800781-.648438-1.597656-1.285157-2.398437-1.984375-1.089844-.957032-2.128906-1.980469-3.144532-3.023438-.71875-.734375-1.441406-1.453125-2.121093-2.222656-1-1.152344-1.917969-2.398438-2.832031-3.617188-.574219-.800781-1.175782-1.511718-1.710938-2.320312-.121094-.183594-.273438-.34375-.390625-.527344-1.105469.242188-2.25.351563-3.371094.554688-.976562.167968-1.949219.34375-2.933593.46875-3.515626.511718-7.0625.785156-10.617188.816406-3.765625-.003906-7.527344-.269531-11.257812-.800781-.253907-.039063-.519532-.054688-.796876-.09375-3.5-.546875-6.957031-1.324219-10.351562-2.328125-.402344-.121094-.800781-.214844-1.195312-.335938-3.253907-1.011718-6.4375-2.234375-9.535157-3.65625l-1.335937-.609375c-3.011719-1.445312-5.933594-3.078125-8.742188-4.886719-.441406-.289062-.882812-.566406-1.3125-.863281-2.761718-1.851562-5.40625-3.871093-7.921875-6.050781l-1.160156-1.039062c-2.492187-2.25-4.839844-4.652344-7.03125-7.199219-.3125-.359375-.605469-.734375-.902344-1.097657-2.207031-2.640624-4.242187-5.425781-6.089843-8.335937-.175782-.300781-.367188-.671875-.558594-1zm0 0"/>
    <path d="m138.632812 316.074219c-7.105468-12.402344-20.296874-20.054688-34.585937-20.074219-14.289063-.015625-27.5 7.609375-34.632813 19.992188-3.589843 6.054687-5.460937 12.972656-5.414062 20.007812 0 22.09375 17.910156 40 40 40s40-17.90625 40-40c.050781-7.003906-1.804688-13.894531-5.367188-19.925781zm-34.632812 11.925781c-4.417969 0-8 3.582031-8 8s-3.582031 8-8 8-8-3.582031-8-8c0-13.253906 10.746094-24 24-24 4.417969 0 8 3.582031 8 8s-3.582031 8-8 8zm0 0"/>
</svg>
